<?xml version="1.0" standalone="no"?>
<!DOCTYPE svg PUBLIC "-//W3C//DTD SVG 20010904//EN"
 "http://www.w3.org/TR/2001/REC-SVG-20010904/DTD/svg10.dtd">
<svg version="1.0" xmlns="http://www.w3.org/2000/svg"
 width="800.000000pt" height="800.000000pt" viewBox="0 0 800.000000 800.000000"
 preserveAspectRatio="xMidYMid meet">
<metadata>
Created by potrace 1.15, written by Peter Selinger 2001-2017
</metadata>
<g transform="translate(0.000000,800.000000) scale(0.100000,-0.100000)"
fill="#000000" stroke="none">
<path d="M3630 7969 c-50 -7 -143 -27 -210 -44 -82 -22 -169 -48 -195 -60 -16
-7 -51 -20 -77 -29 -26 -9 -56 -20 -65 -25 -10 -5 -52 -26 -93 -46 -111 -53
-239 -128 -317 -186 -29 -22 -55 -39 -58 -39 -3 0 -16 -11 -28 -23 -12 -13
-29 -28 -38 -33 -57 -31 -298 -273 -337 -336 -9 -16 -19 -28 -22 -28 -4 0 -24
-26 -46 -57 -21 -32 -41 -60 -44 -63 -4 -3 -17 -23 -30 -45 -13 -22 -26 -42
-29 -45 -9 -7 -27 -40 -53 -90 -13 -25 -25 -47 -28 -50 -9 -9 -100 -206 -100
-217 0 -3 -6 -19 -14 -36 -23 -50 -73 -214 -91 -297 -9 -41 -21 -93 -26 -115
-29 -123 -47 -468 -31 -589 6 -45 14 -108 17 -141 l6 -60 -33 -14 c-36 -15
-101 -44 -163 -72 -54 -25 -248 -136 -280 -161 -5 -4 -46 -34 -90 -66 -115
-84 -251 -210 -366 -338 -129 -145 -292 -405 -374 -599 -10 -22 -24 -54 -31
-72 -8 -17 -14 -35 -14 -41 0 -5 -7 -23 -15 -38 -8 -16 -15 -38 -15 -49 0 -12
-4 -25 -9 -30 -15 -17 -55 -197 -82 -375 -17 -116 -20 -166 -16 -350 6 -243
21 -356 80 -580 18 -71 75 -232 85 -242 13 -13 74 30 69 50 -3 9 -12 42 -20
72 -31 111 -40 168 -51 295 -25 300 23 572 152 845 19 41 39 77 43 78 5 2 9 9
9 15 0 12 86 148 100 157 4 3 9 10 11 16 14 38 171 201 273 283 39 31 73 59
74 64 2 4 7 7 12 7 4 0 34 17 66 39 81 53 174 100 299 150 62 25 213 66 305
83 99 17 421 17 520 0 112 -21 252 -59 317 -88 17 -8 34 -14 37 -14 7 0 181
-85 211 -103 52 -32 110 -71 115 -77 3 -4 12 -11 21 -16 71 -39 244 -212 334
-332 l67 -90 31 16 c18 10 34 19 37 22 3 3 20 13 38 23 17 9 47 25 65 35 17 9
33 18 35 18 2 1 -4 25 -14 54 -18 56 -16 207 3 245 6 11 20 40 32 65 29 63 40
79 86 125 46 46 62 57 125 86 25 12 53 26 62 30 10 5 27 9 38 9 19 0 20 6 20
119 l0 119 -67 11 c-247 38 -285 47 -398 88 -126 46 -334 152 -343 175 -2 4
-8 8 -14 8 -9 0 -31 16 -118 85 -42 33 -215 208 -241 243 -13 19 -29 39 -34
45 -9 11 -79 118 -112 172 -12 19 -76 149 -93 190 -5 11 -19 52 -30 90 -12 39
-26 79 -30 90 -15 38 -30 131 -45 270 -13 114 -14 164 -5 270 14 159 50 335
81 397 5 10 9 23 9 29 0 13 16 50 77 177 46 95 142 245 188 294 14 15 25 29
25 32 0 7 147 153 201 199 130 112 343 229 524 288 95 31 118 37 158 45 36 6
37 7 37 50 0 24 -1 43 -2 43 -2 -1 -28 -5 -58 -10z"/>
<path d="M4310 7934 c0 -40 1 -42 38 -48 118 -22 345 -111 477 -189 260 -153
490 -404 621 -677 25 -52 50 -103 55 -112 5 -10 9 -22 9 -27 0 -5 5 -22 12
-38 38 -92 65 -219 83 -388 24 -230 -2 -449 -82 -685 -24 -70 -86 -207 -116
-255 -36 -58 -103 -162 -112 -172 -5 -6 -21 -26 -34 -45 -29 -39 -200 -211
-251 -252 -19 -15 -53 -40 -75 -54 -22 -15 -42 -29 -45 -33 -24 -27 -231 -130
-345 -172 -113 -41 -151 -50 -397 -88 l-68 -11 0 -119 c0 -113 1 -119 20 -119
11 0 28 -4 38 -9 9 -4 37 -18 62 -30 63 -29 79 -40 125 -86 46 -46 57 -62 86
-125 12 -25 26 -54 32 -65 19 -38 21 -189 3 -245 -10 -29 -16 -53 -14 -54 4
-1 50 -26 98 -52 19 -10 37 -21 40 -24 3 -3 19 -12 37 -22 l31 -16 68 91 c127
169 285 313 469 424 30 18 204 103 211 103 3 0 20 6 37 14 65 29 205 67 317
88 99 17 421 17 520 0 92 -17 243 -58 305 -83 125 -50 218 -97 299 -150 32
-22 62 -39 66 -39 5 0 10 -3 12 -7 2 -5 35 -33 74 -64 101 -81 259 -244 273
-283 2 -6 11 -17 18 -25 23 -23 69 -99 142 -236 30 -55 80 -189 104 -275 48
-172 51 -200 52 -430 0 -246 -1 -251 -72 -512 -3 -12 6 -24 28 -37 31 -19 34
-19 44 -3 14 20 68 175 85 242 57 225 71 330 77 570 4 184 1 234 -16 350 -26
166 -60 323 -81 375 -5 11 -11 29 -14 40 -6 24 -33 103 -45 130 -5 11 -17 38
-26 60 -80 191 -246 456 -374 599 -118 130 -268 269 -378 347 -37 27 -72 52
-78 57 -30 24 -225 136 -280 161 -58 27 -125 56 -163 72 l-33 14 6 70 c3 39
11 100 17 136 17 104 -2 463 -31 584 -5 22 -17 74 -26 115 -9 41 -23 98 -32
125 -34 107 -46 141 -59 172 -8 17 -14 33 -14 36 0 3 -13 35 -30 70 -16 36
-30 70 -30 76 0 6 -4 11 -9 11 -5 0 -12 12 -16 27 -3 15 -10 30 -13 33 -4 3
-17 25 -30 50 -26 50 -44 83 -53 90 -3 3 -16 23 -29 45 -13 22 -26 42 -30 45
-3 3 -23 31 -44 63 -22 31 -42 57 -46 57 -3 0 -13 12 -22 28 -17 26 -46 60
-133 152 -52 55 -181 172 -204 184 -9 5 -18 12 -21 16 -10 13 -156 118 -203
146 -109 65 -145 85 -217 119 -41 20 -83 41 -93 46 -9 5 -39 16 -65 25 -26 9
-60 22 -77 29 -26 12 -113 38 -195 60 -70 18 -161 37 -212 44 l-58 7 0 -42z"/>
<path d="M3870 6077 c-3 -3 -53 -10 -111 -16 -100 -10 -129 -15 -239 -41 -25
-6 -61 -15 -80 -20 -46 -11 -149 -47 -217 -76 -17 -8 -34 -14 -37 -14 -7 0
-183 -86 -211 -103 -11 -6 -39 -24 -63 -39 -24 -16 -47 -28 -52 -28 -4 0 -10
-4 -12 -8 -1 -4 -20 -18 -40 -31 -21 -12 -38 -27 -38 -32 0 -5 -6 -9 -13 -9
-8 0 -22 -9 -32 -19 -16 -19 -16 -22 21 -83 21 -35 42 -64 46 -66 4 -2 8 -8 8
-14 0 -18 94 -130 184 -219 46 -46 76 -61 76 -39 0 6 6 10 14 10 8 0 16 3 18
8 5 12 88 67 160 105 37 20 75 41 85 46 10 5 56 24 103 42 47 17 94 35 105 40
84 34 299 64 455 64 156 0 371 -30 455 -64 11 -5 58 -23 105 -40 47 -18 101
-41 120 -52 19 -11 47 -26 63 -32 15 -6 27 -15 27 -19 0 -4 6 -8 12 -8 14 0
121 -70 126 -82 2 -5 10 -8 18 -8 8 0 14 -4 14 -10 0 -38 87 37 188 163 31 40
59 74 62 77 3 3 10 14 17 25 7 11 29 46 49 78 35 56 35 59 19 78 -10 10 -24
19 -32 19 -7 0 -13 4 -13 9 0 8 -75 59 -180 123 -48 29 -226 118 -236 118 -3
0 -20 6 -37 14 -68 29 -171 65 -217 76 -19 5 -55 14 -80 20 -101 24 -143 32
-227 41 -104 12 -376 23 -383 16z"/>
<path d="M1946 4299 c-22 -71 -27 -392 -9 -546 12 -96 18 -127 43 -233 6 -25
15 -61 20 -80 9 -38 25 -86 47 -137 7 -17 13 -36 13 -42 0 -6 4 -19 10 -29 5
-9 17 -35 26 -57 22 -53 81 -175 97 -200 51 -83 131 -201 138 -203 5 -2 9 -9
9 -15 0 -7 14 -26 30 -44 17 -18 30 -35 30 -38 0 -9 266 -275 274 -275 4 0 19
-12 34 -26 22 -20 175 -125 267 -181 21 -13 136 -70 195 -96 54 -24 71 -24 84
-2 6 11 13 22 16 25 5 5 64 125 85 175 7 17 20 53 29 80 64 203 68 183 -51
241 -96 46 -235 130 -241 146 -2 4 -7 8 -12 8 -27 0 -310 283 -310 310 0 5 -3
10 -7 12 -13 5 -68 88 -106 160 -20 37 -41 75 -46 85 -5 10 -24 56 -42 103
-17 47 -35 94 -40 105 -11 28 -28 104 -47 215 -18 103 -23 356 -9 425 9 39 8
41 -25 52 -145 51 -492 93 -502 62z"/>
<path d="M5879 4306 c-2 -3 -45 -10 -94 -16 -91 -11 -102 -13 -208 -46 l-59
-18 9 -40 c20 -100 5 -409 -27 -526 -37 -138 -82 -270 -111 -323 -6 -10 -26
-48 -46 -85 -38 -72 -93 -155 -105 -160 -5 -2 -8 -7 -8 -12 0 -27 -283 -310
-310 -310 -5 0 -10 -4 -12 -8 -6 -16 -145 -100 -240 -146 -78 -38 -98 -52 -98
-68 0 -54 92 -308 144 -398 12 -20 26 -45 32 -55 7 -12 20 -19 30 -17 30 6
188 79 249 115 67 40 201 131 203 138 2 5 9 9 15 9 7 0 26 14 44 30 18 17 35
30 38 30 9 0 275 266 275 275 0 3 13 20 30 38 16 18 30 37 30 44 0 6 4 13 9
15 7 2 87 120 138 203 16 25 75 147 97 200 9 22 21 47 25 55 5 9 12 30 15 48
4 17 12 34 17 37 5 4 9 15 9 27 0 11 6 34 14 51 8 18 17 43 19 57 3 14 10 45
16 70 27 108 32 139 44 239 14 126 15 354 2 466 l-10 80 -85 3 c-47 1 -88 1
-91 -2z"/>
<path d="M3610 3685 c-14 -8 -34 -19 -45 -25 -11 -6 -33 -19 -50 -30 -16 -11
-38 -23 -47 -26 -27 -9 -28 -28 -4 -75 13 -24 31 -66 40 -94 10 -27 22 -59 26
-70 32 -77 67 -246 81 -392 10 -97 10 -148 0 -250 -16 -158 -54 -345 -82 -395
-5 -10 -9 -23 -9 -29 0 -25 -128 -288 -163 -334 -4 -5 -34 -46 -66 -90 -68
-93 -199 -227 -286 -293 -33 -25 -62 -49 -65 -52 -6 -7 -209 -130 -215 -130
-2 0 -32 -13 -67 -29 -209 -96 -466 -147 -700 -138 -156 6 -370 40 -418 66 -9
5 -31 12 -50 16 -19 4 -39 11 -45 15 -5 4 -25 11 -43 15 -17 3 -32 11 -32 16
0 5 -8 9 -18 9 -10 0 -27 7 -38 15 -10 8 -24 15 -31 15 -11 0 -162 87 -173
100 -3 3 -23 17 -45 31 -59 39 -149 115 -220 188 l-63 63 -36 -17 c-37 -18
-37 -18 -20 -44 59 -89 324 -345 437 -421 20 -14 37 -28 37 -32 0 -5 5 -8 11
-8 6 0 28 -13 48 -28 20 -16 43 -32 51 -35 8 -4 38 -21 65 -37 61 -36 233
-120 295 -145 25 -9 54 -21 65 -26 11 -5 49 -18 85 -29 36 -11 79 -25 96 -30
70 -23 249 -55 379 -70 210 -23 638 0 730 40 11 5 38 11 60 15 74 12 251 71
361 120 120 54 191 90 254 128 71 43 202 129 210 137 3 3 24 20 48 39 l42 33
43 -33 c23 -19 44 -36 47 -39 24 -25 258 -168 340 -207 142 -68 188 -87 305
-128 338 -117 765 -147 1140 -80 101 18 171 33 209 45 82 26 156 51 206 70 30
12 63 24 73 27 23 7 230 113 277 141 19 12 42 25 50 29 8 3 17 9 20 12 12 14
70 51 80 51 5 0 10 3 10 8 0 4 17 18 37 32 113 76 378 332 437 421 17 26 17
26 -20 44 l-37 18 -41 -44 c-55 -59 -187 -173 -239 -207 -23 -15 -44 -29 -47
-33 -20 -22 -223 -129 -246 -129 -8 0 -14 -4 -14 -9 0 -5 -15 -13 -32 -16 -18
-4 -37 -11 -43 -15 -5 -4 -26 -11 -45 -15 -19 -4 -41 -11 -50 -16 -48 -26
-262 -60 -418 -66 -268 -10 -513 46 -792 180 -25 12 -47 25 -50 28 -3 3 -34
23 -70 44 -36 21 -67 42 -70 45 -3 3 -32 27 -65 52 -33 25 -98 83 -143 129
-70 70 -107 114 -209 255 -30 40 -127 230 -147 289 -10 28 -22 59 -26 70 -5
11 -15 45 -24 75 -96 348 -82 679 42 1015 14 39 35 90 48 114 24 47 23 66 -4
75 -9 3 -30 15 -47 26 -16 11 -37 23 -45 26 -8 4 -22 13 -30 19 -34 28 -56 26
-91 -8 -19 -18 -41 -36 -49 -40 -8 -4 -31 -17 -50 -28 -57 -35 -148 -59 -220
-59 -76 0 -182 29 -235 66 -20 13 -38 24 -41 24 -3 0 -21 16 -41 35 -41 40
-40 40 -73 20z"/>
</g>
</svg>
